<svg width="1024" height="1024" viewBox="0 0 1024 1024" fill="none" xmlns="http://www.w3.org/2000/svg">
<g clip-path="url(#clip0_1_1752)">
<path d="M525.094 341.904C578.109 327.214 631.362 323.629 685.425 332.34C685.306 335.712 683.401 336.756 682.048 338.102C668.206 351.87 657.749 367.898 649.138 385.385C633.835 416.462 627.355 449.87 622.163 483.655C618.574 507.01 615.218 530.485 607.822 552.948C591.549 602.373 561.868 640.342 511.73 659.014C484.461 669.169 456.391 670.003 428.28 661.739C424.611 660.66 420.88 659.66 417.398 658.124C413.937 656.598 412.178 657.437 411.082 660.928C407.484 672.385 405.024 684.071 403.552 695.985C402.508 704.429 402.175 712.918 402.087 721.4C402.051 724.833 400.711 726.725 397.748 727.789C391.094 730.18 384.353 729.947 377.576 728.358C373.936 727.505 374.131 724.764 374.545 722.043C376.198 711.179 378.395 700.407 381.355 689.837C388.816 663.19 397.859 637.083 409.239 611.834C442.048 539.037 485.38 473.505 543.248 418.03C544.209 417.109 545.129 416.144 546.034 415.167C546.23 414.955 546.281 414.608 546.983 412.91C470.501 471.435 420.25 547.576 384.103 634.142C380.034 632.958 378.385 629.873 376.476 627.314C353.387 596.36 342.169 561.74 345.08 523.002C346.81 499.97 353.681 478.419 364.189 457.827C387.598 411.952 425.985 382.908 471.28 361.513C488.492 353.384 506.481 347.28 525.094 341.904Z" fill="black"/>
</g>
<defs>
<clipPath id="clip0_1_1752">
<rect width="1024" height="1024" fill="white"/>
</clipPath>
</defs>
</svg>
